{"title":"Elysium.2013.CAM.XviD-TANGiNA","uid":8809627,"size":1197272637,"categoryP":"video","categoryS":"movies","magnet":"?xt=urn:btih:a70883fb1ec481677febdec6c4290cc69033417f&amp;dn=Elysium.2013.CAM.XviD-TANGiNA&amp;tr=udp%3A%2F%2Ftracker.openbittorrent.com%3A80&amp;tr=udp%3A%2F%2Fopen.demonii.com%3A1337&amp;tr=udp%3A%2F%2Ftracker.coppersurfer.tk%3A6969&amp;tr=udp%3A%2F%2Fexodus.desync.com%3A6969","seeders":1,"leechers":0,"uploader":"scenetime55","files":6,"time":1376425646,"description":"\nGeneral\nComplete name                            : Elysium.2013.CAM.XviD-TANGiNA \nFormat                                   : AVI\nFormat/Info                              : Audio Video Interleave\nFile size                                : 1.11 GiB\nDuration                                 : 1h 36mn\nOverall bit rate                         : 1 634 Kbps\nWriting application                      : VirtualDubMod 1.5.10.2 (build 2542/release)\nWriting library                          : VirtualDubMod build 2542/release\n\nVideo\nID                                       : 0\nFormat                                   : MPEG-4 Visual\nFormat profile                           : Advanced Simple@L5\nFormat settings, BVOP                    : 2\nFormat settings, QPel                    : No\nFormat settings, GMC                     : No warppoints\nFormat settings, Matrix                  : Default (H.263)\nCodec ID                                 : XVID\nCodec ID/Hint                            : XviD\nDuration                                 : 1h 36mn\nBit rate                                 : 1 497 Kbps\nWidth                                    : 720 pixels\nHeight                                   : 264 pixels\nDisplay aspect ratio                     : 2.727\nFrame rate                               : 24.000 fps\nColor space                              : YUV\nChroma subsampling                       : 4:2:0\nBit depth                                : 8 bits\nScan type                                : Progressive\nCompression mode                         : Lossy\nBits/(Pixel*Frame)                       : 0.328\nStream size                              : 1.01 GiB (92%)\nWriting library                          : XviD 1.2.1 (UTC 2008-12-04)\n\nAudio\nID                                       : 1\nFormat                                   : MPEG Audio\nFormat version                           : Version 1\nFormat profile                           : Layer 3\nCodec ID                                 : 55\nCodec ID/Hint                            : MP3\nDuration                                 : 1h 36mn\nBit rate mode                            : Constant\nBit rate                                 : 128 Kbps\nChannel(s)                               : 2 channels\nSampling rate                            : 44.1 KHz\nCompression mode                         : Lossy\nStream size                              : 88.8 MiB (8%)\nAlignment                                : Split accross interleaves\nInterleave, duration                     : 42 ms (1.00 video frame)\nInterleave, preload duration             : 500 ms","torrent":{"xt":"urn:btih:a70883fb1ec481677febdec6c4290cc69033417f","amp;dn":"Elysium.2013.CAM.XviD-TANGiNA","amp;tr":["udp%3A%2F%2Ftracker.openbittorrent.com%3A80","udp%3A%2F%2Fopen.demonii.com%3A1337","udp%3A%2F%2Ftracker.coppersurfer.tk%3A6969","udp%3A%2F%2Fexodus.desync.com%3A6969"],"infoHash":"a70883fb1ec481677febdec6c4290cc69033417f","infoHashBuffer":{"type":"Buffer","data":[167,8,131,251,30,196,129,103,127,235,222,198,196,41,12,198,144,51,65,127]},"announce":[],"urlList":[]}}